<svg width="68" height="88" viewBox="0 0 68 88" fill="none" xmlns="http://www.w3.org/2000/svg">
<g clip-path="url(#clip0_785_1618)">
<path d="M54.0461 36.4985C54.0496 47.3354 34.2598 77.4418 34.2598 77.4418C34.2598 77.4418 14.7497 47.3693 14.7198 36.5179C14.7163 25.6809 23.5158 16.8544 34.3528 16.851C45.1897 16.8475 54.0162 25.647 54.0197 36.484L54.0461 36.4985Z" fill="url(#paint0_linear_785_1618)"/>
<path d="M39.2698 20.2381C46.3806 22.3862 51.3476 29.0676 51.3598 36.5041C51.3652 43.7648 40.4969 62.5662 34.2454 72.5159C28.0812 62.5632 17.355 43.8123 17.364 36.5251C17.3492 31.9766 19.1314 27.7263 22.3453 24.5025C25.5591 21.2787 29.8233 19.5256 34.3719 19.5108C36.0589 19.5079 37.7092 19.76 39.2843 20.2117L39.2698 20.2381ZM40.0416 17.7035C38.2405 17.1622 36.3352 16.8733 34.3786 16.8659C23.5417 16.8694 14.7157 25.6814 14.7456 36.5328C14.7491 47.3698 34.2857 77.4568 34.2857 77.4568C34.2857 77.4568 54.061 47.3768 54.072 36.5134C54.0611 27.633 48.1673 20.1334 40.0826 17.6916L40.0416 17.7035Z" fill="url(#paint1_linear_785_1618)"/>
</g>
<defs>
<linearGradient id="paint0_linear_785_1618" x1="34.1866" y1="19.3299" x2="34.7078" y2="75.2184" gradientUnits="userSpaceOnUse">
<stop offset="0.33" stop-color="#FFD845"/>
<stop offset="0.34" stop-color="#FFCB45"/>
<stop offset="0.36" stop-color="#FFAD45"/>
<stop offset="0.38" stop-color="#FF9745"/>
<stop offset="0.4" stop-color="#FF8A45"/>
<stop offset="0.42" stop-color="#FF8645"/>
<stop offset="0.45" stop-color="#FF9445"/>
<stop offset="0.5" stop-color="#FFAD45"/>
<stop offset="0.57" stop-color="#FFC045"/>
<stop offset="0.64" stop-color="#FFCD45"/>
<stop offset="0.74" stop-color="#FFD545"/>
<stop offset="0.92" stop-color="#FFD845"/>
</linearGradient>
<linearGradient id="paint1_linear_785_1618" x1="34.4692" y1="77.4774" x2="34.2854" y2="16.9042" gradientUnits="userSpaceOnUse">
<stop offset="0.29" stop-color="#C28535"/>
<stop offset="0.36" stop-color="#D5A55B"/>
<stop offset="0.44" stop-color="#E4C07B"/>
<stop offset="0.51" stop-color="#F0D493"/>
<stop offset="0.59" stop-color="#F8E3A5"/>
<stop offset="0.68" stop-color="#FDECAF"/>
<stop offset="0.79" stop-color="#FFEFB3"/>
</linearGradient>
<clipPath id="clip0_785_1618">
<rect width="66.1943" height="87.1827" fill="white" transform="translate(0.973022)"/>
</clipPath>
</defs>
</svg>
