<svg width="118" height="117" viewBox="0 0 118 117" fill="none" xmlns="http://www.w3.org/2000/svg">
<path style="mix-blend-mode:multiply" d="M90.2136 85.7033C105.245 68.5692 103.541 42.4937 86.4065 27.4622C69.2724 12.4306 43.1969 14.1352 28.1654 31.2693C13.1338 48.4035 14.8383 74.4789 31.9725 89.5105C49.1066 104.542 75.1821 102.837 90.2136 85.7033Z" fill="url(#paint0_radial_785_1619)"/>
<path d="M59.4647 91.6702C82.2578 91.6702 100.735 73.1928 100.735 50.3996C100.735 27.6065 82.2578 9.12903 59.4647 9.12903C36.6716 9.12903 18.1941 27.6065 18.1941 50.3996C18.1941 73.1928 36.6716 91.6702 59.4647 91.6702Z" fill="url(#paint1_linear_785_1619)"/>
<path d="M84.9938 71.7578C96.7859 57.6646 94.9205 36.6804 80.8273 24.8883C66.7341 13.0962 45.7499 14.9616 33.9578 29.0548C22.1657 43.148 24.0311 64.1321 38.1243 75.9243C52.2175 87.7164 73.2017 85.851 84.9938 71.7578Z" fill="url(#paint2_linear_785_1619)"/>
<g style="mix-blend-mode:soft-light">
<path d="M84.9938 71.7578C96.7859 57.6646 94.9205 36.6804 80.8273 24.8883C66.7341 13.0962 45.7499 14.9616 33.9578 29.0548C22.1657 43.148 24.0311 64.1321 38.1243 75.9243C52.2175 87.7164 73.2017 85.851 84.9938 71.7578Z" fill="#BF8000"/>
</g>
<path d="M36.341 57.822C35.3521 57.822 34.4339 57.6303 33.5863 57.2469C32.7454 56.8634 32.0121 56.3354 31.3865 55.6626C30.7609 54.9832 30.2732 54.1995 29.9234 53.3115C29.5736 52.4236 29.3987 51.4784 29.3987 50.4761C29.3987 49.393 29.5904 48.4075 29.9738 47.5195C30.364 46.6316 30.8887 45.8647 31.548 45.2189C32.214 44.5664 32.964 44.0652 33.7982 43.7154C34.6391 43.3656 35.5069 43.1907 36.4016 43.1907C37.3837 43.1907 38.3524 43.4194 39.3076 43.8768C40.2629 44.3343 41.124 45.0743 41.8908 46.0968L39.1866 47.5498C38.7762 47.0856 38.3255 46.7459 37.8344 46.5307C37.3501 46.3087 36.859 46.1977 36.3612 46.1977C35.8567 46.1977 35.3689 46.3019 34.8981 46.5105C34.4272 46.719 34.0067 47.015 33.6367 47.3984C33.2667 47.7819 32.9708 48.2393 32.7488 48.7708C32.5335 49.3022 32.4259 49.8908 32.4259 50.5366C32.4259 51.1286 32.5268 51.6836 32.7286 52.2016C32.9371 52.7196 33.223 53.1736 33.5863 53.5638C33.9495 53.9472 34.37 54.25 34.8476 54.472C35.3252 54.6872 35.8365 54.7949 36.3814 54.7949C36.6908 54.7949 36.9969 54.7545 37.2996 54.6738C37.6091 54.5863 37.9084 54.4585 38.1977 54.2903C38.4869 54.1221 38.7594 53.9069 39.015 53.6445C39.2706 53.3822 39.5027 53.0727 39.7113 52.7162H37.8142V50.0926H43.2833C43.3372 51.1488 43.1925 52.1444 42.8494 53.0795C42.5131 54.0078 42.0254 54.8285 41.3863 55.5416C40.7472 56.2546 39.9972 56.813 39.1361 57.2166C38.275 57.6202 37.3433 57.822 36.341 57.822Z" fill="#5E271B"/>
<path d="M45.3197 57.5597V43.4328H48.3469V57.5597H45.3197Z" fill="#5E271B"/>
<path d="M51.0674 57.5597V43.4328H56.8191C57.5927 43.4328 58.2923 43.6279 58.9179 44.0181C59.5435 44.4083 60.038 44.933 60.4012 45.5922C60.7712 46.2448 60.9562 46.9646 60.9562 47.7516C60.9562 48.3571 60.8553 48.9221 60.6535 49.4468C60.4517 49.9648 60.1624 50.4256 59.7857 50.8293C59.4157 51.2261 58.9785 51.5457 58.4739 51.7879L61.824 57.5597H58.3327L55.144 52.0704H54.0946V57.5597H51.0674ZM54.0946 49.0432H56.4558C56.7249 49.0432 56.9704 48.9759 57.1924 48.8414C57.4144 48.7001 57.5927 48.5151 57.7272 48.2864C57.8618 48.0577 57.929 47.8054 57.929 47.5296C57.929 47.2538 57.8618 47.0016 57.7272 46.7728C57.5927 46.5441 57.4144 46.3625 57.1924 46.2279C56.9704 46.0867 56.7249 46.016 56.4558 46.016H54.0946V49.0432Z" fill="#5E271B"/>
<path d="M67.8512 43.4328H71.2619L76.3879 57.5597H73.1791L72.3718 55.3397H66.7413L65.934 57.5597H62.7252L67.8512 43.4328ZM67.8512 52.3126H71.2619L69.5465 47.6305L67.8512 52.3126Z" fill="#5E271B"/>
<path d="M77.9888 57.5597V43.4328H83.7405C84.5141 43.4328 85.2137 43.6279 85.8393 44.0181C86.4649 44.4083 86.9594 44.933 87.3226 45.5922C87.6926 46.2448 87.8776 46.9646 87.8776 47.7516C87.8776 48.3571 87.7767 48.9221 87.5749 49.4468C87.3731 49.9648 87.0838 50.4256 86.7071 50.8293C86.3371 51.2261 85.8998 51.5457 85.3953 51.7879L88.7454 57.5597H85.254L82.0654 52.0704H81.016V57.5597H77.9888ZM81.016 49.0432H83.3772C83.6463 49.0432 83.8918 48.9759 84.1138 48.8414C84.3358 48.7001 84.5141 48.5151 84.6486 48.2864C84.7832 48.0577 84.8504 47.8054 84.8504 47.5296C84.8504 47.2538 84.7832 47.0016 84.6486 46.7728C84.5141 46.5441 84.3358 46.3625 84.1138 46.2279C83.8918 46.0867 83.6463 46.016 83.3772 46.016H81.016V49.0432Z" fill="#5E271B"/>
<defs>
<radialGradient id="paint0_radial_785_1619" cx="0" cy="0" r="1" gradientUnits="userSpaceOnUse" gradientTransform="translate(59.2221 58.4792) rotate(2.07999) scale(41.2706 41.2706)">
<stop offset="0.8" stop-color="#5E271B"/>
<stop offset="0.8001" stop-color="#5E271B"/>
<stop offset="0.885417" stop-color="#5E271B"/>
<stop offset="0.98" stop-color="transparent"/>
<stop offset="1" stop-color="transparent"/>
</radialGradient>
<linearGradient id="paint1_linear_785_1619" x1="58.0367" y1="89.7241" x2="61.0343" y2="7.5821" gradientUnits="userSpaceOnUse">
<stop stop-color="#C28434"/>
<stop offset="0.54" stop-color="#EDD08E"/>
<stop offset="0.79" stop-color="#FFEFB3"/>
</linearGradient>
<linearGradient id="paint2_linear_785_1619" x1="58.3031" y1="82.1272" x2="60.72" y2="15.8972" gradientUnits="userSpaceOnUse">
<stop stop-color="#E6C493"/>
<stop offset="0.42" stop-color="#BD955D"/>
<stop offset="0.45" stop-color="#C59E68"/>
<stop offset="0.52" stop-color="#D4AF7B"/>
<stop offset="0.61" stop-color="#DEBB88"/>
<stop offset="0.71" stop-color="#E4C190"/>
<stop offset="0.92" stop-color="#E6C493"/>
</linearGradient>
</defs>
</svg>
